G04 #@! TF.FileFunction,Copper,L4,Bot,Signal*
%FSLAX46Y46*%
G04 Gerber Fmt 4.6, Leading zero omitted, Abs format (unit mm)*
G04 Created by KiCad (PCBNEW 4.0.2-stable) date 05/06/2016 01:14:18*
%MOMM*%
G01*
G04 APERTURE LIST*
%ADD10C,0.100000*%
%ADD11R,1.800000X2.800000*%
%ADD12R,2.800000X2.800000*%
%ADD13O,1.500000X1.100000*%
%ADD14O,1.700000X1.200000*%
%ADD15R,2.032000X1.727200*%
%ADD16O,2.032000X1.727200*%
%ADD17R,2.032000X2.032000*%
%ADD18O,2.032000X2.032000*%
%ADD19C,0.700000*%
%ADD20C,0.250000*%
%ADD21C,0.200000*%
%ADD22C,0.225000*%
G04 APERTURE END LIST*
D10*
X137000000Y-50500000D02*
G75*
G03X137500000Y-50000000I0J500000D01*
G01*
X136500000Y-50000000D02*
G75*
G03X137000000Y-50500000I500000J0D01*
G01*
X136500000Y-57750000D02*
X136500000Y-55500000D01*
X137500000Y-55500000D02*
X137500000Y-57750000D01*
X137500000Y-55500000D02*
G75*
G03X137000000Y-55000000I-500000J0D01*
G01*
X137000000Y-55000000D02*
G75*
G03X136500000Y-55500000I0J-500000D01*
G01*
X137500000Y-65750000D02*
X137500000Y-70500000D01*
X136500000Y-58500000D02*
X136500000Y-63250000D01*
X136500000Y-75500000D02*
X136500000Y-70750000D01*
X137500000Y-70750000D02*
X137500000Y-75500000D01*
X136500000Y-87750000D02*
X136500000Y-90000000D01*
X137500000Y-90000000D02*
X137500000Y-87750000D01*
X137500000Y-57750000D02*
X137500000Y-65750000D01*
X137500000Y-70500000D02*
X137500000Y-70750000D01*
X136500000Y-63500000D02*
X136500000Y-70750000D01*
X136500000Y-63500000D02*
X136500000Y-63250000D01*
X141600000Y-87500000D02*
G75*
G03X141600000Y-87500000I-1600000J0D01*
G01*
X141600000Y-52500000D02*
G75*
G03X141600000Y-52500000I-1600000J0D01*
G01*
X136500000Y-58500000D02*
X136500000Y-57750000D01*
X142500000Y-90000000D02*
X140000000Y-90000000D01*
X142500000Y-50000000D02*
X139000000Y-50000000D01*
X142500000Y-90000000D02*
X142500000Y-50000000D01*
X139000000Y-50000000D02*
X137500000Y-50000000D01*
X136500000Y-50000000D02*
X110000000Y-50000000D01*
X136500000Y-82500000D02*
X136500000Y-75500000D01*
X137500000Y-75500000D02*
X137500000Y-82500000D01*
X137000000Y-83000000D02*
G75*
G03X137500000Y-82500000I0J500000D01*
G01*
X136500000Y-82500000D02*
G75*
G03X137000000Y-83000000I500000J0D01*
G01*
X137500000Y-87750000D02*
G75*
G03X137000000Y-87250000I-500000J0D01*
G01*
X137000000Y-87250000D02*
G75*
G03X136500000Y-87750000I0J-500000D01*
G01*
X137500000Y-90000000D02*
X139000000Y-90000000D01*
X136500000Y-90000000D02*
X110000000Y-90000000D01*
X140000000Y-90000000D02*
X139000000Y-90000000D01*
X110000000Y-50000000D02*
X110000000Y-90000000D01*
D11*
X112400000Y-54900000D03*
X114400000Y-62100000D03*
D12*
X121800000Y-54900000D03*
X125600000Y-59250000D03*
D13*
X131375000Y-62175000D03*
X131375000Y-57325000D03*
D14*
X134375000Y-62475000D03*
X134375000Y-57025000D03*
D15*
X139700000Y-68580000D03*
D16*
X139700000Y-71120000D03*
X139700000Y-73660000D03*
X139700000Y-76200000D03*
X139700000Y-78740000D03*
X139700000Y-81280000D03*
D17*
X130000000Y-51700000D03*
D18*
X132540000Y-51700000D03*
D15*
X139700000Y-55880000D03*
D16*
X139700000Y-58420000D03*
X139700000Y-60960000D03*
X139700000Y-63500000D03*
X139700000Y-66040000D03*
X139700000Y-68580000D03*
D19*
X135200000Y-79800000D03*
X117500000Y-82600000D03*
X118500000Y-82500000D03*
X119500000Y-82600000D03*
X119100000Y-88100000D03*
X126747676Y-62998477D03*
X132500000Y-64400000D03*
X134500000Y-84900000D03*
X125000000Y-87200000D03*
X124900000Y-56100000D03*
X119592210Y-52337588D03*
X126039998Y-52100000D03*
X122500000Y-61400000D03*
X120500000Y-64400000D03*
X124500000Y-64300000D03*
X115200000Y-52600000D03*
X115900000Y-55900000D03*
X115500000Y-64500000D03*
X121600000Y-57600000D03*
X110724980Y-56367425D03*
X122100000Y-88524980D03*
X127700000Y-56200000D03*
X125500000Y-64400000D03*
X125944998Y-61920037D03*
X125950000Y-56050000D03*
X130400000Y-88300000D03*
X120700000Y-86700000D03*
X126500000Y-64400000D03*
X111200000Y-59300000D03*
X123350000Y-50850000D03*
X119900000Y-62400000D03*
X115700000Y-60100000D03*
X112243144Y-56729708D03*
X114300000Y-63000000D03*
X122800000Y-58500000D03*
X126200000Y-51100000D03*
X116500000Y-82600000D03*
X129700000Y-83600000D03*
X134275066Y-54029688D03*
X130500000Y-64500000D03*
X128667009Y-64570455D03*
X134600124Y-55379709D03*
X135200000Y-78800000D03*
X134227311Y-87772689D03*
X131500000Y-82500000D03*
X126656885Y-85693091D03*
X128000021Y-58500000D03*
X127556885Y-85693091D03*
X128900000Y-58500000D03*
X117200000Y-52495998D03*
X114500000Y-64500000D03*
X116300000Y-52495998D03*
X113500000Y-64500000D03*
X119025002Y-58500000D03*
X115900000Y-57100000D03*
X118000000Y-84500000D03*
D20*
X132500000Y-63905026D02*
X132500000Y-64400000D01*
X135195310Y-54704690D02*
X133951064Y-54704690D01*
X132500000Y-56155754D02*
X132500000Y-63905026D01*
X135775000Y-54125000D02*
X135195310Y-54704690D01*
X133951064Y-54704690D02*
X132500000Y-56155754D01*
X134500000Y-85500000D02*
X134500000Y-84900000D01*
X134775000Y-85775000D02*
X134500000Y-85500000D01*
X135575000Y-85775000D02*
X134775000Y-85775000D01*
X135775000Y-85125000D02*
X135575000Y-85125000D01*
X136900000Y-85150000D02*
X136850000Y-85150000D01*
X137875000Y-70025000D02*
X137875000Y-70925000D01*
X136900000Y-85750000D02*
X136900000Y-85150000D01*
X137775000Y-85750000D02*
X136900000Y-85750000D01*
X138325000Y-85200000D02*
X137775000Y-85750000D01*
X138325000Y-71375000D02*
X138325000Y-85200000D01*
X137875000Y-70925000D02*
X138325000Y-71375000D01*
X136825000Y-85125000D02*
X136575000Y-85125000D01*
X136850000Y-85150000D02*
X136825000Y-85125000D01*
D21*
X135775000Y-85125000D02*
X136575000Y-85125000D01*
D20*
X135575000Y-85125000D02*
X135575000Y-85775000D01*
X137875000Y-68575000D02*
X138525000Y-68575000D01*
X138525000Y-68575000D02*
X138525000Y-68580000D01*
X137875000Y-68125000D02*
X137875000Y-68575000D01*
X137875000Y-68575000D02*
X137875000Y-68800000D01*
D21*
X135775000Y-54125000D02*
X136525000Y-54125000D01*
D20*
X136900000Y-54625000D02*
X136900000Y-54175000D01*
D21*
X137875000Y-68125000D02*
X137875000Y-54950000D01*
X137875000Y-54950000D02*
X137550000Y-54625000D01*
X137550000Y-54625000D02*
X136900000Y-54625000D01*
D20*
X136900000Y-54175000D02*
X136850000Y-54125000D01*
X136525000Y-54125000D02*
X136850000Y-54125000D01*
X137875000Y-68800000D02*
X137875000Y-70025000D01*
X137875000Y-70025000D02*
X137850000Y-70050000D01*
D21*
X139700000Y-68580000D02*
X138525000Y-68580000D01*
X138525000Y-68580000D02*
X138350000Y-68580000D01*
X138350000Y-68580000D02*
X138330000Y-68580000D01*
D20*
X122100000Y-88030006D02*
X122100000Y-88524980D01*
X122100000Y-87863590D02*
X122100000Y-88030006D01*
X124200000Y-65700000D02*
X124200000Y-85763590D01*
X124200000Y-85763590D02*
X122100000Y-87863590D01*
X125500000Y-64400000D02*
X124200000Y-65700000D01*
X129200000Y-56400000D02*
X127900000Y-56400000D01*
X127900000Y-56400000D02*
X127700000Y-56200000D01*
X132558999Y-53041001D02*
X129200000Y-56400000D01*
X135600000Y-52200000D02*
X134024682Y-52200000D01*
X134024682Y-52200000D02*
X133183681Y-53041001D01*
X133183681Y-53041001D02*
X132558999Y-53041001D01*
X125500000Y-64400000D02*
X125500000Y-62365035D01*
X125500000Y-62365035D02*
X125944998Y-61920037D01*
X135600000Y-52200000D02*
X135600000Y-51625000D01*
D21*
X135975000Y-51625000D02*
X136550000Y-51625000D01*
D20*
X136975000Y-51625000D02*
X136550000Y-51625000D01*
X136975000Y-52300000D02*
X136975000Y-51625000D01*
X137725000Y-52300000D02*
X136975000Y-52300000D01*
X137750000Y-52325000D02*
X137725000Y-52300000D01*
X137750000Y-53500000D02*
X137750000Y-52325000D01*
X138500000Y-54250000D02*
X137750000Y-53500000D01*
X138950000Y-54250000D02*
X138500000Y-54250000D01*
X139300000Y-54600000D02*
X138950000Y-54250000D01*
X140925000Y-54600000D02*
X139300000Y-54600000D01*
X141075000Y-54750000D02*
X140925000Y-54600000D01*
X141075000Y-57875000D02*
X141075000Y-54750000D01*
X141075000Y-57875000D02*
X140530000Y-58420000D01*
X135600000Y-51625000D02*
X135975000Y-51625000D01*
X139700000Y-58420000D02*
X140530000Y-58420000D01*
X127312231Y-63368517D02*
X127500000Y-63180748D01*
X127325001Y-57425001D02*
X125950000Y-56050000D01*
X127500000Y-59800000D02*
X127325001Y-59625001D01*
X127325001Y-59625001D02*
X127325001Y-57425001D01*
X127500000Y-63180748D02*
X127500000Y-59800000D01*
X126500000Y-64400000D02*
X127312231Y-63587769D01*
X127312231Y-63587769D02*
X127312231Y-63368517D01*
X125950000Y-56050000D02*
X125949999Y-56049999D01*
X126405026Y-87105026D02*
X125200000Y-85900000D01*
X125200000Y-85900000D02*
X124700000Y-85900000D01*
X129700000Y-87105026D02*
X126405026Y-87105026D01*
X130400000Y-88300000D02*
X130400000Y-87805026D01*
X130400000Y-87805026D02*
X129700000Y-87105026D01*
X120700000Y-88200000D02*
X120700000Y-86700000D01*
X121700000Y-89200000D02*
X120700000Y-88200000D01*
X122500000Y-89200000D02*
X121700000Y-89200000D01*
X122900000Y-88800000D02*
X122500000Y-89200000D01*
X122900000Y-87700000D02*
X122900000Y-88800000D01*
X124700000Y-85900000D02*
X122900000Y-87700000D01*
X124700000Y-67900000D02*
X124700000Y-85900000D01*
X126500000Y-66100000D02*
X124700000Y-67900000D01*
X126500000Y-64400000D02*
X126500000Y-66100000D01*
D21*
X123350000Y-50850000D02*
X120050000Y-50850000D01*
X111200000Y-58800000D02*
X111200000Y-59300000D01*
X112800000Y-57200000D02*
X111200000Y-58800000D01*
X113200000Y-57200000D02*
X112800000Y-57200000D01*
X114100000Y-56300000D02*
X113200000Y-57200000D01*
X114100000Y-52600000D02*
X114100000Y-56300000D01*
X115100000Y-51600000D02*
X114100000Y-52600000D01*
X119300000Y-51600000D02*
X115100000Y-51600000D01*
X120050000Y-50850000D02*
X119300000Y-51600000D01*
X123350000Y-50850000D02*
X123300000Y-50900000D01*
D20*
X117400000Y-60100000D02*
X119700000Y-62400000D01*
X119700000Y-62400000D02*
X119900000Y-62400000D01*
X115700000Y-60100000D02*
X117400000Y-60100000D01*
X112400000Y-54900000D02*
X112400000Y-56572852D01*
X112400000Y-56572852D02*
X112243144Y-56729708D01*
D21*
X114300000Y-63000000D02*
X114400000Y-62900000D01*
X114400000Y-62900000D02*
X114400000Y-62100000D01*
D20*
X114400000Y-62100000D02*
X114400000Y-61600000D01*
X122800000Y-58500000D02*
X122800000Y-58005026D01*
X122800000Y-58005026D02*
X122275001Y-57480027D01*
X122275001Y-57480027D02*
X122275001Y-57275999D01*
X122275001Y-57275999D02*
X121800000Y-56800998D01*
X121800000Y-56800998D02*
X121800000Y-54900000D01*
X122250000Y-55350000D02*
X121800000Y-54900000D01*
X125705026Y-51100000D02*
X126200000Y-51100000D01*
X123600000Y-53205026D02*
X125705026Y-51100000D01*
X123100000Y-62500000D02*
X123600000Y-62000000D01*
X123100000Y-76000000D02*
X123100000Y-62500000D01*
X123600000Y-62000000D02*
X123600000Y-53205026D01*
X116500000Y-82600000D02*
X123100000Y-76000000D01*
X129700000Y-84200000D02*
X129700000Y-83600000D01*
X134100000Y-88600000D02*
X129700000Y-84200000D01*
X134700000Y-88600000D02*
X134100000Y-88600000D01*
X135600000Y-87700000D02*
X134700000Y-88600000D01*
X135600000Y-87050000D02*
X135600000Y-87700000D01*
X135775000Y-86375000D02*
X135575000Y-86375000D01*
X140600000Y-76200000D02*
X141100000Y-76700000D01*
X141100000Y-76700000D02*
X141100000Y-83300000D01*
X141100000Y-83300000D02*
X137725000Y-86675000D01*
X137725000Y-86675000D02*
X137725000Y-86850000D01*
X137725000Y-86850000D02*
X137600000Y-86975000D01*
X137600000Y-86975000D02*
X136975000Y-86975000D01*
X136975000Y-86975000D02*
X136925000Y-86925000D01*
X136925000Y-86925000D02*
X136925000Y-86375000D01*
X136925000Y-86375000D02*
X136575000Y-86375000D01*
D21*
X135775000Y-86375000D02*
X136575000Y-86375000D01*
D20*
X135600000Y-86400000D02*
X135600000Y-87050000D01*
X135575000Y-86375000D02*
X135600000Y-86400000D01*
X139700000Y-76200000D02*
X140600000Y-76200000D01*
X132970312Y-54029688D02*
X133780092Y-54029688D01*
X133780092Y-54029688D02*
X134275066Y-54029688D01*
X130150001Y-64150001D02*
X130150001Y-56849999D01*
X130500000Y-64500000D02*
X130150001Y-64150001D01*
X130150001Y-56849999D02*
X132970312Y-54029688D01*
X129017008Y-64220456D02*
X128667009Y-64570455D01*
X129700000Y-63537464D02*
X129017008Y-64220456D01*
X132808988Y-53491012D02*
X129700000Y-56600000D01*
X133370081Y-53491012D02*
X132808988Y-53491012D01*
X129700000Y-56600000D02*
X129700000Y-63537464D01*
X133986092Y-52875000D02*
X133370081Y-53491012D01*
X135950000Y-52875000D02*
X133986092Y-52875000D01*
X137175000Y-53575000D02*
X136925000Y-53575000D01*
X138325000Y-54725000D02*
X137175000Y-53575000D01*
X139700000Y-63500000D02*
X140775000Y-63500000D01*
X138325000Y-58950000D02*
X138325000Y-58750000D01*
X139025000Y-59650000D02*
X138325000Y-58950000D01*
X140750000Y-59650000D02*
X139025000Y-59650000D01*
X141225000Y-60125000D02*
X140750000Y-59650000D01*
X141225000Y-63050000D02*
X141225000Y-60125000D01*
X140775000Y-63500000D02*
X141225000Y-63050000D01*
X138325000Y-58750000D02*
X138325000Y-54725000D01*
X136925000Y-52875000D02*
X136500000Y-52875000D01*
X136925000Y-52975000D02*
X136925000Y-52875000D01*
X136925000Y-53575000D02*
X136925000Y-52975000D01*
D21*
X135950000Y-52875000D02*
X136500000Y-52875000D01*
D20*
X135800000Y-78200000D02*
X135800000Y-56579585D01*
X134950123Y-55729708D02*
X134600124Y-55379709D01*
X135800000Y-56579585D02*
X134950123Y-55729708D01*
X135200000Y-78800000D02*
X135800000Y-78200000D01*
X133877312Y-87422690D02*
X134227311Y-87772689D01*
X131500000Y-85045378D02*
X133877312Y-87422690D01*
X131500000Y-82500000D02*
X131500000Y-85045378D01*
D22*
X127187500Y-82411980D02*
X126894386Y-82705094D01*
X126894386Y-82705094D02*
X126894386Y-85455590D01*
X126894386Y-85455590D02*
X126656885Y-85693091D01*
X127187500Y-64511980D02*
X127187500Y-82411980D01*
X128237512Y-63461968D02*
X127187500Y-64511980D01*
X128000022Y-58500000D02*
X128237512Y-58737490D01*
X128237512Y-58737490D02*
X128237512Y-63461968D01*
X128000021Y-58500000D02*
X128000022Y-58500000D01*
X127319384Y-85455590D02*
X127556885Y-85693091D01*
X127612500Y-82588020D02*
X127319384Y-82881136D01*
X127319384Y-82881136D02*
X127319384Y-85455590D01*
X127612500Y-64688020D02*
X127612500Y-82588020D01*
X128662510Y-63638010D02*
X127612500Y-64688020D01*
X128662510Y-58737490D02*
X128662510Y-63638010D01*
X128900000Y-58500000D02*
X128662510Y-58737490D01*
X116962499Y-52733499D02*
X117200000Y-52495998D01*
X115212500Y-55088020D02*
X116962499Y-53338021D01*
X116962499Y-53338021D02*
X116962499Y-52733499D01*
X115212500Y-59088020D02*
X115212500Y-55088020D01*
X114088020Y-60212500D02*
X115212500Y-59088020D01*
X113088020Y-60212500D02*
X114088020Y-60212500D01*
X112962500Y-60338020D02*
X113088020Y-60212500D01*
X113249999Y-63812501D02*
X112962500Y-63525002D01*
X114500000Y-64500000D02*
X113812501Y-63812501D01*
X113812501Y-63812501D02*
X113249999Y-63812501D01*
X112962500Y-63525002D02*
X112962500Y-60338020D01*
X114787500Y-54911980D02*
X116537501Y-53161979D01*
X116537501Y-53161979D02*
X116537501Y-52733499D01*
X116537501Y-52733499D02*
X116300000Y-52495998D01*
X114787500Y-58911980D02*
X114787500Y-54911980D01*
X113911980Y-59787500D02*
X114787500Y-58911980D01*
X112911980Y-59787500D02*
X113911980Y-59787500D01*
X112537500Y-60161980D02*
X112911980Y-59787500D01*
X113500000Y-64500000D02*
X113500000Y-64237492D01*
X113500000Y-64237492D02*
X113073961Y-64237491D01*
X113073961Y-64237491D02*
X112537500Y-63701030D01*
X112537500Y-63701030D02*
X112537500Y-60161980D01*
D20*
X116700000Y-58500000D02*
X115900000Y-57700000D01*
X119025002Y-58500000D02*
X116700000Y-58500000D01*
X115900000Y-57700000D02*
X115900000Y-57100000D01*
X119736411Y-84500000D02*
X118494974Y-84500000D01*
X123550011Y-80686400D02*
X119736411Y-84500000D01*
X118494974Y-84500000D02*
X118000000Y-84500000D01*
X123550011Y-62949989D02*
X123550011Y-80686400D01*
X125600000Y-60900000D02*
X123550011Y-62949989D01*
X125600000Y-59250000D02*
X125600000Y-60900000D01*
M02*
