G04 #@! TF.FileFunction,Legend,Top*
%FSLAX46Y46*%
G04 Gerber Fmt 4.6, Leading zero omitted, Abs format (unit mm)*
G04 Created by KiCad (PCBNEW 4.0.2-stable) date 05/06/2016 01:14:18*
%MOMM*%
G01*
G04 APERTURE LIST*
%ADD10C,0.100000*%
%ADD11C,0.120000*%
%ADD12C,0.150000*%
G04 APERTURE END LIST*
D10*
X137000000Y-50500000D02*
G75*
G03X137500000Y-50000000I0J500000D01*
G01*
X136500000Y-50000000D02*
G75*
G03X137000000Y-50500000I500000J0D01*
G01*
X136500000Y-57750000D02*
X136500000Y-55500000D01*
X137500000Y-55500000D02*
X137500000Y-57750000D01*
X137500000Y-55500000D02*
G75*
G03X137000000Y-55000000I-500000J0D01*
G01*
X137000000Y-55000000D02*
G75*
G03X136500000Y-55500000I0J-500000D01*
G01*
X137500000Y-65750000D02*
X137500000Y-70500000D01*
X136500000Y-58500000D02*
X136500000Y-63250000D01*
X136500000Y-75500000D02*
X136500000Y-70750000D01*
X137500000Y-70750000D02*
X137500000Y-75500000D01*
X136500000Y-87750000D02*
X136500000Y-90000000D01*
X137500000Y-90000000D02*
X137500000Y-87750000D01*
X137500000Y-57750000D02*
X137500000Y-65750000D01*
X137500000Y-70500000D02*
X137500000Y-70750000D01*
X136500000Y-63500000D02*
X136500000Y-70750000D01*
X136500000Y-63500000D02*
X136500000Y-63250000D01*
X141600000Y-87500000D02*
G75*
G03X141600000Y-87500000I-1600000J0D01*
G01*
X141600000Y-52500000D02*
G75*
G03X141600000Y-52500000I-1600000J0D01*
G01*
X136500000Y-58500000D02*
X136500000Y-57750000D01*
X142500000Y-90000000D02*
X140000000Y-90000000D01*
X142500000Y-50000000D02*
X139000000Y-50000000D01*
X142500000Y-90000000D02*
X142500000Y-50000000D01*
X139000000Y-50000000D02*
X137500000Y-50000000D01*
X136500000Y-50000000D02*
X110000000Y-50000000D01*
X136500000Y-82500000D02*
X136500000Y-75500000D01*
X137500000Y-75500000D02*
X137500000Y-82500000D01*
X137000000Y-83000000D02*
G75*
G03X137500000Y-82500000I0J500000D01*
G01*
X136500000Y-82500000D02*
G75*
G03X137000000Y-83000000I500000J0D01*
G01*
X137500000Y-87750000D02*
G75*
G03X137000000Y-87250000I-500000J0D01*
G01*
X137000000Y-87250000D02*
G75*
G03X136500000Y-87750000I0J-500000D01*
G01*
X137500000Y-90000000D02*
X139000000Y-90000000D01*
X136500000Y-90000000D02*
X110000000Y-90000000D01*
X140000000Y-90000000D02*
X139000000Y-90000000D01*
X110000000Y-50000000D02*
X110000000Y-90000000D01*
D11*
X116190000Y-57020000D02*
X115670000Y-57020000D01*
X115670000Y-57020000D02*
X115670000Y-60180000D01*
X115670000Y-60180000D02*
X116190000Y-60180000D01*
X118310000Y-57020000D02*
X118830000Y-57020000D01*
X118830000Y-57020000D02*
X118830000Y-60180000D01*
X118830000Y-60180000D02*
X118310000Y-60180000D01*
X118310000Y-57020000D02*
X118310000Y-56775000D01*
D12*
X110250000Y-64250000D02*
X135750000Y-64250000D01*
X135750000Y-64250000D02*
X135750000Y-82750000D01*
X135750000Y-82750000D02*
X116250000Y-82750000D01*
X116250000Y-82750000D02*
X116000000Y-82750000D01*
X116000000Y-82750000D02*
X116000000Y-81750000D01*
X137195000Y-63750000D02*
X137195000Y-55750000D01*
X129875000Y-63750000D02*
X129875000Y-55750000D01*
X129875000Y-55750000D02*
X137195000Y-55750000D01*
X136575000Y-55750000D02*
X136575000Y-63750000D01*
X137195000Y-63750000D02*
X129875000Y-63750000D01*
X140970000Y-69850000D02*
X140970000Y-82550000D01*
X140970000Y-82550000D02*
X138430000Y-82550000D01*
X138430000Y-82550000D02*
X138430000Y-69850000D01*
X141250000Y-67030000D02*
X141250000Y-68580000D01*
X140970000Y-69850000D02*
X138430000Y-69850000D01*
X138150000Y-68580000D02*
X138150000Y-67030000D01*
X138150000Y-67030000D02*
X141250000Y-67030000D01*
D11*
X121250000Y-51220000D02*
X122250000Y-51220000D01*
X121250000Y-50280000D02*
X122250000Y-50280000D01*
X128220000Y-84500000D02*
X128220000Y-83500000D01*
X127280000Y-84500000D02*
X127280000Y-83500000D01*
X116970000Y-84500000D02*
X116970000Y-83500000D01*
X116030000Y-84500000D02*
X116030000Y-83500000D01*
X116030000Y-86945000D02*
X116030000Y-87945000D01*
X116970000Y-86945000D02*
X116970000Y-87945000D01*
X114780000Y-53750000D02*
X114780000Y-54750000D01*
X115720000Y-53750000D02*
X115720000Y-54750000D01*
X130970000Y-84500000D02*
X130970000Y-83500000D01*
X130030000Y-84500000D02*
X130030000Y-83500000D01*
X126720000Y-84500000D02*
X126720000Y-83500000D01*
X125780000Y-84500000D02*
X125780000Y-83500000D01*
X115720000Y-63250000D02*
X115720000Y-62250000D01*
X114780000Y-63250000D02*
X114780000Y-62250000D01*
X121750000Y-62280000D02*
X120750000Y-62280000D01*
X121750000Y-63220000D02*
X120750000Y-63220000D01*
X111055000Y-55970000D02*
X112055000Y-55970000D01*
X111055000Y-55030000D02*
X112055000Y-55030000D01*
X116030000Y-53750000D02*
X116030000Y-54750000D01*
X116970000Y-53750000D02*
X116970000Y-54750000D01*
X116970000Y-63250000D02*
X116970000Y-62250000D01*
X116030000Y-63250000D02*
X116030000Y-62250000D01*
X118220000Y-63250000D02*
X118220000Y-62250000D01*
X117280000Y-63250000D02*
X117280000Y-62250000D01*
X118530000Y-53750000D02*
X118530000Y-54750000D01*
X119470000Y-53750000D02*
X119470000Y-54750000D01*
X119470000Y-63250000D02*
X119470000Y-62250000D01*
X118530000Y-63250000D02*
X118530000Y-62250000D01*
X117280000Y-53750000D02*
X117280000Y-54750000D01*
X118220000Y-53750000D02*
X118220000Y-54750000D01*
D12*
X125375000Y-50500000D02*
X126775000Y-50500000D01*
X125375000Y-53500000D02*
X126775000Y-53500000D01*
X125375000Y-50505000D02*
X124315000Y-50505000D01*
D11*
X110720000Y-62225000D02*
X110720000Y-60825000D01*
X113760000Y-62225000D02*
X113760000Y-60825000D01*
X110805000Y-62225000D02*
X110805000Y-63065000D01*
D12*
X123200000Y-52975000D02*
X123200000Y-54375000D01*
X120200000Y-52975000D02*
X120200000Y-54375000D01*
X123195000Y-52975000D02*
X123195000Y-51915000D01*
D11*
X126230000Y-61450000D02*
X126230000Y-60050000D01*
X129270000Y-61450000D02*
X129270000Y-60050000D01*
X126315000Y-61450000D02*
X126315000Y-62290000D01*
D12*
X118950000Y-87250000D02*
X117550000Y-87250000D01*
X117550000Y-87250000D02*
X117550000Y-86295000D01*
X118950000Y-84250000D02*
X117550000Y-84250000D01*
X117550000Y-84250000D02*
X117550000Y-85205000D01*
D11*
X122750000Y-56280000D02*
X121750000Y-56280000D01*
X122750000Y-57220000D02*
X121750000Y-57220000D01*
X117500000Y-61870000D02*
X118500000Y-61870000D01*
X117500000Y-60930000D02*
X118500000Y-60930000D01*
X117750000Y-56220000D02*
X118750000Y-56220000D01*
X117750000Y-55280000D02*
X118750000Y-55280000D01*
X119280000Y-60250000D02*
X119280000Y-61250000D01*
X120220000Y-60250000D02*
X120220000Y-61250000D01*
X114330000Y-55800000D02*
X114330000Y-56800000D01*
X115270000Y-55800000D02*
X115270000Y-56800000D01*
D12*
X121550000Y-86875000D02*
X121550000Y-85475000D01*
X124550000Y-86875000D02*
X124550000Y-85475000D01*
X121555000Y-86875000D02*
X121555000Y-87935000D01*
X140970000Y-57150000D02*
X140970000Y-69850000D01*
X140970000Y-69850000D02*
X138430000Y-69850000D01*
X138430000Y-69850000D02*
X138430000Y-57150000D01*
X141250000Y-54330000D02*
X141250000Y-55880000D01*
X140970000Y-57150000D02*
X138430000Y-57150000D01*
X138150000Y-55880000D02*
X138150000Y-54330000D01*
X138150000Y-54330000D02*
X141250000Y-54330000D01*
D11*
X122280000Y-59250000D02*
X122280000Y-60250000D01*
X123220000Y-59250000D02*
X123220000Y-60250000D01*
X128000000Y-57720000D02*
X129000000Y-57720000D01*
X128000000Y-56780000D02*
X129000000Y-56780000D01*
X128000000Y-63720000D02*
X129000000Y-63720000D01*
X128000000Y-62780000D02*
X129000000Y-62780000D01*
D12*
X131600000Y-86600000D02*
X127540000Y-86600000D01*
X127540000Y-86600000D02*
X127540000Y-88400000D01*
X127540000Y-88400000D02*
X131600000Y-88400000D01*
D11*
X121750000Y-61030000D02*
X120750000Y-61030000D01*
X121750000Y-61970000D02*
X120750000Y-61970000D01*
X110280000Y-57250000D02*
X110280000Y-58250000D01*
X111220000Y-57250000D02*
X111220000Y-58250000D01*
X125720000Y-61250000D02*
X125720000Y-60250000D01*
X124780000Y-61250000D02*
X124780000Y-60250000D01*
X125305000Y-88470000D02*
X126305000Y-88470000D01*
X125305000Y-87530000D02*
X126305000Y-87530000D01*
X124500000Y-55220000D02*
X125500000Y-55220000D01*
X124500000Y-54280000D02*
X125500000Y-54280000D01*
X119945000Y-88470000D02*
X120945000Y-88470000D01*
X119945000Y-87530000D02*
X120945000Y-87530000D01*
X121000000Y-56280000D02*
X120000000Y-56280000D01*
X121000000Y-57220000D02*
X120000000Y-57220000D01*
X121750000Y-59780000D02*
X120750000Y-59780000D01*
X121750000Y-60720000D02*
X120750000Y-60720000D01*
X114750000Y-61720000D02*
X115750000Y-61720000D01*
X114750000Y-60780000D02*
X115750000Y-60780000D01*
X111530000Y-57245000D02*
X111530000Y-58245000D01*
X112470000Y-57245000D02*
X112470000Y-58245000D01*
M02*
