G04 #@! TF.FileFunction,Profile,NP*
%FSLAX46Y46*%
G04 Gerber Fmt 4.6, Leading zero omitted, Abs format (unit mm)*
G04 Created by KiCad (PCBNEW 4.0.2-stable) date 05/06/2016 01:14:18*
%MOMM*%
G01*
G04 APERTURE LIST*
%ADD10C,0.100000*%
G04 APERTURE END LIST*
D10*
X137000000Y-50500000D02*
G75*
G03X137500000Y-50000000I0J500000D01*
G01*
X136500000Y-50000000D02*
G75*
G03X137000000Y-50500000I500000J0D01*
G01*
X136500000Y-57750000D02*
X136500000Y-55500000D01*
X137500000Y-55500000D02*
X137500000Y-57750000D01*
X137500000Y-55500000D02*
G75*
G03X137000000Y-55000000I-500000J0D01*
G01*
X137000000Y-55000000D02*
G75*
G03X136500000Y-55500000I0J-500000D01*
G01*
X137500000Y-65750000D02*
X137500000Y-70500000D01*
X136500000Y-58500000D02*
X136500000Y-63250000D01*
X136500000Y-75500000D02*
X136500000Y-70750000D01*
X137500000Y-70750000D02*
X137500000Y-75500000D01*
X136500000Y-87750000D02*
X136500000Y-90000000D01*
X137500000Y-90000000D02*
X137500000Y-87750000D01*
X137500000Y-57750000D02*
X137500000Y-65750000D01*
X137500000Y-70500000D02*
X137500000Y-70750000D01*
X136500000Y-63500000D02*
X136500000Y-70750000D01*
X136500000Y-63500000D02*
X136500000Y-63250000D01*
X141600000Y-87500000D02*
G75*
G03X141600000Y-87500000I-1600000J0D01*
G01*
X141600000Y-52500000D02*
G75*
G03X141600000Y-52500000I-1600000J0D01*
G01*
X136500000Y-58500000D02*
X136500000Y-57750000D01*
X142500000Y-90000000D02*
X140000000Y-90000000D01*
X142500000Y-50000000D02*
X139000000Y-50000000D01*
X142500000Y-90000000D02*
X142500000Y-50000000D01*
X139000000Y-50000000D02*
X137500000Y-50000000D01*
X136500000Y-50000000D02*
X110000000Y-50000000D01*
X136500000Y-82500000D02*
X136500000Y-75500000D01*
X137500000Y-75500000D02*
X137500000Y-82500000D01*
X137000000Y-83000000D02*
G75*
G03X137500000Y-82500000I0J500000D01*
G01*
X136500000Y-82500000D02*
G75*
G03X137000000Y-83000000I500000J0D01*
G01*
X137500000Y-87750000D02*
G75*
G03X137000000Y-87250000I-500000J0D01*
G01*
X137000000Y-87250000D02*
G75*
G03X136500000Y-87750000I0J-500000D01*
G01*
X137500000Y-90000000D02*
X139000000Y-90000000D01*
X136500000Y-90000000D02*
X110000000Y-90000000D01*
X140000000Y-90000000D02*
X139000000Y-90000000D01*
X110000000Y-50000000D02*
X110000000Y-90000000D01*
M02*
