G04 #@! TF.FileFunction,Copper,L1,Top,Signal*
%FSLAX46Y46*%
G04 Gerber Fmt 4.6, Leading zero omitted, Abs format (unit mm)*
G04 Created by KiCad (PCBNEW 4.0.2-stable) date 05/06/2016 01:14:17*
%MOMM*%
G01*
G04 APERTURE LIST*
%ADD10C,0.100000*%
%ADD11R,0.260000X0.900000*%
%ADD12R,2.450000X1.575000*%
%ADD13O,2.000000X0.600000*%
%ADD14O,0.600000X2.000000*%
%ADD15R,1.650000X0.400000*%
%ADD16O,1.500000X1.100000*%
%ADD17O,1.700000X1.200000*%
%ADD18R,2.500000X1.425000*%
%ADD19R,2.032000X1.727200*%
%ADD20O,2.032000X1.727200*%
%ADD21R,0.510000X0.580000*%
%ADD22R,0.580000X0.510000*%
%ADD23R,1.320000X0.640000*%
%ADD24R,1.030000X1.250000*%
%ADD25R,0.610000X1.250000*%
%ADD26R,0.640000X1.320000*%
%ADD27R,2.032000X2.032000*%
%ADD28O,2.032000X2.032000*%
%ADD29R,1.470000X0.890000*%
%ADD30C,0.700000*%
%ADD31C,0.250000*%
%ADD32C,0.200000*%
%ADD33C,0.225000*%
G04 APERTURE END LIST*
D10*
X137000000Y-50500000D02*
G75*
G03X137500000Y-50000000I0J500000D01*
G01*
X136500000Y-50000000D02*
G75*
G03X137000000Y-50500000I500000J0D01*
G01*
X136500000Y-57750000D02*
X136500000Y-55500000D01*
X137500000Y-55500000D02*
X137500000Y-57750000D01*
X137500000Y-55500000D02*
G75*
G03X137000000Y-55000000I-500000J0D01*
G01*
X137000000Y-55000000D02*
G75*
G03X136500000Y-55500000I0J-500000D01*
G01*
X137500000Y-65750000D02*
X137500000Y-70500000D01*
X136500000Y-58500000D02*
X136500000Y-63250000D01*
X136500000Y-75500000D02*
X136500000Y-70750000D01*
X137500000Y-70750000D02*
X137500000Y-75500000D01*
X136500000Y-87750000D02*
X136500000Y-90000000D01*
X137500000Y-90000000D02*
X137500000Y-87750000D01*
X137500000Y-57750000D02*
X137500000Y-65750000D01*
X137500000Y-70500000D02*
X137500000Y-70750000D01*
X136500000Y-63500000D02*
X136500000Y-70750000D01*
X136500000Y-63500000D02*
X136500000Y-63250000D01*
X141600000Y-87500000D02*
G75*
G03X141600000Y-87500000I-1600000J0D01*
G01*
X141600000Y-52500000D02*
G75*
G03X141600000Y-52500000I-1600000J0D01*
G01*
X136500000Y-58500000D02*
X136500000Y-57750000D01*
X142500000Y-90000000D02*
X140000000Y-90000000D01*
X142500000Y-50000000D02*
X139000000Y-50000000D01*
X142500000Y-90000000D02*
X142500000Y-50000000D01*
X139000000Y-50000000D02*
X137500000Y-50000000D01*
X136500000Y-50000000D02*
X110000000Y-50000000D01*
X136500000Y-82500000D02*
X136500000Y-75500000D01*
X137500000Y-75500000D02*
X137500000Y-82500000D01*
X137000000Y-83000000D02*
G75*
G03X137500000Y-82500000I0J500000D01*
G01*
X136500000Y-82500000D02*
G75*
G03X137000000Y-83000000I500000J0D01*
G01*
X137500000Y-87750000D02*
G75*
G03X137000000Y-87250000I-500000J0D01*
G01*
X137000000Y-87250000D02*
G75*
G03X136500000Y-87750000I0J-500000D01*
G01*
X137500000Y-90000000D02*
X139000000Y-90000000D01*
X136500000Y-90000000D02*
X110000000Y-90000000D01*
X140000000Y-90000000D02*
X139000000Y-90000000D01*
X110000000Y-50000000D02*
X110000000Y-90000000D01*
D11*
X118000000Y-57165000D03*
X117500000Y-57165000D03*
X117000000Y-57165000D03*
X116500000Y-57165000D03*
X116500000Y-60035000D03*
X117000000Y-60035000D03*
X117500000Y-60035000D03*
X118000000Y-60035000D03*
D12*
X117250000Y-58600000D03*
D13*
X134200000Y-73800000D03*
D14*
X116500000Y-81500000D03*
X117500000Y-81500000D03*
X118500000Y-81500000D03*
X119500000Y-81500000D03*
X120500000Y-81500000D03*
X121500000Y-81500000D03*
X122500000Y-81500000D03*
X123500000Y-81500000D03*
X124500000Y-81500000D03*
X125500000Y-81500000D03*
X126500000Y-81500000D03*
X127500000Y-81500000D03*
X128500000Y-81500000D03*
X129500000Y-81500000D03*
X130500000Y-81500000D03*
X131500000Y-81500000D03*
X132500000Y-81500000D03*
D13*
X134200000Y-79800000D03*
X134200000Y-78800000D03*
X134200000Y-77800000D03*
X134200000Y-76800000D03*
X134200000Y-75800000D03*
X134200000Y-74800000D03*
X134200000Y-72800000D03*
X134200000Y-71800000D03*
X134200000Y-70800000D03*
X134200000Y-69800000D03*
X134200000Y-68800000D03*
X134200000Y-67800000D03*
D14*
X132500000Y-65500000D03*
X131500000Y-65500000D03*
X130500000Y-65500000D03*
X129500000Y-65500000D03*
X128500000Y-65500000D03*
X127500000Y-65500000D03*
X126500000Y-65500000D03*
X125500000Y-65500000D03*
X124500000Y-65500000D03*
X123500000Y-65500000D03*
X122500000Y-65500000D03*
X121500000Y-65500000D03*
X120500000Y-65500000D03*
X119500000Y-65500000D03*
X118500000Y-65500000D03*
X117500000Y-65500000D03*
X116500000Y-65500000D03*
X115500000Y-65500000D03*
X114500000Y-65500000D03*
X113500000Y-65500000D03*
D15*
X131500000Y-61050000D03*
X131500000Y-60400000D03*
X131500000Y-59750900D03*
X131500000Y-59100000D03*
X131500000Y-58450000D03*
D16*
X131375000Y-62175000D03*
X131375000Y-57325000D03*
D17*
X134375000Y-62475000D03*
X134375000Y-57025000D03*
D18*
X134625000Y-60712500D03*
X134625000Y-58787500D03*
D19*
X139700000Y-68580000D03*
D20*
X139700000Y-71120000D03*
X139700000Y-73660000D03*
X139700000Y-76200000D03*
X139700000Y-78740000D03*
X139700000Y-81280000D03*
D21*
X122195000Y-50750000D03*
X121305000Y-50750000D03*
D22*
X127750000Y-83555000D03*
X127750000Y-84445000D03*
X116500000Y-83555000D03*
X116500000Y-84445000D03*
X116500000Y-87890000D03*
X116500000Y-87000000D03*
X115250000Y-54695000D03*
X115250000Y-53805000D03*
X130500000Y-83555000D03*
X130500000Y-84445000D03*
X126250000Y-83555000D03*
X126250000Y-84445000D03*
X115250000Y-62305000D03*
X115250000Y-63195000D03*
D21*
X120805000Y-62750000D03*
X121695000Y-62750000D03*
X112000000Y-55500000D03*
X111110000Y-55500000D03*
D22*
X116500000Y-54695000D03*
X116500000Y-53805000D03*
X116500000Y-62305000D03*
X116500000Y-63195000D03*
X117750000Y-62305000D03*
X117750000Y-63195000D03*
X119000000Y-54695000D03*
X119000000Y-53805000D03*
X119000000Y-62305000D03*
X119000000Y-63195000D03*
X117750000Y-54695000D03*
X117750000Y-53805000D03*
D23*
X124900000Y-51050000D03*
X124900000Y-52000000D03*
X124900000Y-52950000D03*
X127250000Y-52950000D03*
X127250000Y-52000000D03*
X127250000Y-51050000D03*
D24*
X111500000Y-62500000D03*
D25*
X113190000Y-62500000D03*
X113190000Y-60550000D03*
X111290000Y-60550000D03*
D26*
X122650000Y-52500000D03*
X121700000Y-52500000D03*
X120750000Y-52500000D03*
X120750000Y-54850000D03*
X121700000Y-54850000D03*
X122650000Y-54850000D03*
D24*
X127010000Y-61725000D03*
D25*
X128700000Y-61725000D03*
X128700000Y-59775000D03*
X126800000Y-59775000D03*
D23*
X119425000Y-86700000D03*
X119425000Y-84800000D03*
X117075000Y-85750000D03*
D21*
X121805000Y-56750000D03*
X122695000Y-56750000D03*
X118445000Y-61400000D03*
X117555000Y-61400000D03*
X118695000Y-55750000D03*
X117805000Y-55750000D03*
D22*
X119750000Y-61195000D03*
X119750000Y-60305000D03*
X114800000Y-56745000D03*
X114800000Y-55855000D03*
D27*
X130000000Y-51700000D03*
D28*
X132540000Y-51700000D03*
D26*
X122100000Y-87350000D03*
X123050000Y-87350000D03*
X124000000Y-87350000D03*
X124000000Y-85000000D03*
X123050000Y-85000000D03*
X122100000Y-85000000D03*
D19*
X139700000Y-55880000D03*
D20*
X139700000Y-58420000D03*
X139700000Y-60960000D03*
X139700000Y-63500000D03*
X139700000Y-66040000D03*
X139700000Y-68580000D03*
D22*
X122750000Y-60195000D03*
X122750000Y-59305000D03*
D21*
X128945000Y-57250000D03*
X128055000Y-57250000D03*
X128945000Y-63250000D03*
X128055000Y-63250000D03*
D29*
X128500000Y-87500000D03*
X132000000Y-87500000D03*
D21*
X120805000Y-61500000D03*
X121695000Y-61500000D03*
D22*
X110750000Y-58195000D03*
X110750000Y-57305000D03*
X125250000Y-60305000D03*
X125250000Y-61195000D03*
D21*
X126250000Y-88000000D03*
X125360000Y-88000000D03*
X125445000Y-54750000D03*
X124555000Y-54750000D03*
X120890000Y-88000000D03*
X120000000Y-88000000D03*
X120055000Y-56750000D03*
X120945000Y-56750000D03*
X120805000Y-60250000D03*
X121695000Y-60250000D03*
X115695000Y-61250000D03*
X114805000Y-61250000D03*
D22*
X112000000Y-58190000D03*
X112000000Y-57300000D03*
D30*
X135200000Y-79800000D03*
X117500000Y-82600000D03*
X118500000Y-82500000D03*
X119500000Y-82600000D03*
X119100000Y-88100000D03*
X126747676Y-62998477D03*
X132500000Y-64400000D03*
X134500000Y-84900000D03*
X125000000Y-87200000D03*
X124900000Y-56100000D03*
X119592210Y-52337588D03*
X126039998Y-52100000D03*
X122500000Y-61400000D03*
X120500000Y-64400000D03*
X124500000Y-64300000D03*
X115200000Y-52600000D03*
X115900000Y-55900000D03*
X115500000Y-64500000D03*
X121600000Y-57600000D03*
X110724980Y-56367425D03*
X122100000Y-88524980D03*
X127700000Y-56200000D03*
X125500000Y-64400000D03*
X125944998Y-61920037D03*
X125950000Y-56050000D03*
X130400000Y-88300000D03*
X120700000Y-86700000D03*
X126500000Y-64400000D03*
X111200000Y-59300000D03*
X123350000Y-50850000D03*
X119900000Y-62400000D03*
X115700000Y-60100000D03*
X112243144Y-56729708D03*
X114300000Y-63000000D03*
X122800000Y-58500000D03*
X126200000Y-51100000D03*
X116500000Y-82600000D03*
X129700000Y-83600000D03*
X134275066Y-54029688D03*
X130500000Y-64500000D03*
X128667009Y-64570455D03*
X134600124Y-55379709D03*
X135200000Y-78800000D03*
X134227311Y-87772689D03*
X131500000Y-82500000D03*
X126656885Y-85693091D03*
X128000021Y-58500000D03*
X127556885Y-85693091D03*
X128900000Y-58500000D03*
X117200000Y-52495998D03*
X114500000Y-64500000D03*
X116300000Y-52495998D03*
X113500000Y-64500000D03*
X119025002Y-58500000D03*
X115900000Y-57100000D03*
X118000000Y-84500000D03*
D31*
X134200000Y-79800000D02*
X135200000Y-79800000D01*
X117500000Y-81500000D02*
X117500000Y-82600000D01*
X118500000Y-81500000D02*
X118500000Y-82500000D01*
X119500000Y-81500000D02*
X119500000Y-82600000D01*
X120000000Y-88000000D02*
X119200000Y-88000000D01*
X119200000Y-88000000D02*
X119100000Y-88100000D01*
X127010000Y-61725000D02*
X127010000Y-62736153D01*
X127010000Y-62736153D02*
X126747676Y-62998477D01*
X132500000Y-64400000D02*
X132500000Y-65500000D01*
X134500000Y-81400000D02*
X134200000Y-81100000D01*
X134200000Y-81100000D02*
X134200000Y-79800000D01*
X134500000Y-84900000D02*
X134500000Y-81400000D01*
X124900000Y-56100000D02*
X124550001Y-55750001D01*
X124550001Y-55750001D02*
X124550001Y-55659999D01*
X124550001Y-55659999D02*
X124555000Y-55655000D01*
X125360000Y-88000000D02*
X125360000Y-87560000D01*
X125360000Y-87560000D02*
X125000000Y-87200000D01*
X123200000Y-88500000D02*
X123050000Y-88350000D01*
X123050000Y-88350000D02*
X123050000Y-87350000D01*
X124500000Y-88500000D02*
X123200000Y-88500000D01*
X124600000Y-88400000D02*
X124500000Y-88500000D01*
X124600000Y-88255000D02*
X124600000Y-88400000D01*
X125360000Y-88000000D02*
X124855000Y-88000000D01*
X124855000Y-88000000D02*
X124600000Y-88255000D01*
D32*
X124555000Y-54750000D02*
X124555000Y-55655000D01*
X124555000Y-55655000D02*
X124600000Y-55700000D01*
D31*
X127010000Y-61835000D02*
X127010000Y-61725000D01*
X126245000Y-62600000D02*
X127010000Y-61835000D01*
X125625957Y-62600000D02*
X126245000Y-62600000D01*
X125250000Y-62224043D02*
X125625957Y-62600000D01*
X125250000Y-61195000D02*
X125250000Y-62224043D01*
X124500000Y-61000000D02*
X124695000Y-61195000D01*
X124695000Y-61195000D02*
X125250000Y-61195000D01*
X124500000Y-59924998D02*
X124500000Y-61000000D01*
X125300000Y-59500000D02*
X124924998Y-59500000D01*
X124924998Y-59500000D02*
X124500000Y-59924998D01*
X128055000Y-57250000D02*
X127550000Y-57250000D01*
X127550000Y-57250000D02*
X125300000Y-59500000D01*
X120750000Y-52500000D02*
X119754622Y-52500000D01*
X119754622Y-52500000D02*
X119592210Y-52337588D01*
X125939998Y-52000000D02*
X126039998Y-52100000D01*
X124900000Y-52000000D02*
X125939998Y-52000000D01*
X122750000Y-60195000D02*
X122750000Y-61150000D01*
X122750000Y-61150000D02*
X122500000Y-61400000D01*
X121695000Y-61500000D02*
X122400000Y-61500000D01*
X122400000Y-61500000D02*
X122500000Y-61400000D01*
X121695000Y-60250000D02*
X121695000Y-61500000D01*
X121695000Y-62750000D02*
X121695000Y-61500000D01*
X120500000Y-65500000D02*
X120500000Y-64400000D01*
X124500000Y-65500000D02*
X124500000Y-64300000D01*
D32*
X115250000Y-53805000D02*
X115250000Y-52650000D01*
X115250000Y-52650000D02*
X115200000Y-52600000D01*
X114800000Y-55855000D02*
X115855000Y-55855000D01*
X115855000Y-55855000D02*
X115900000Y-55900000D01*
D31*
X120750000Y-52500000D02*
X120750000Y-51305000D01*
X120750000Y-51305000D02*
X121305000Y-50750000D01*
X115250000Y-63195000D02*
X115250000Y-63700000D01*
X115250000Y-63700000D02*
X115500000Y-63950000D01*
X115500000Y-63950000D02*
X115500000Y-64500000D01*
X115500000Y-65500000D02*
X115500000Y-64500000D01*
X121224999Y-57124999D02*
X121224999Y-57300001D01*
X121224999Y-57300001D02*
X121524998Y-57600000D01*
X121524998Y-57600000D02*
X121600000Y-57600000D01*
X120945000Y-56845000D02*
X121224999Y-57124999D01*
X120945000Y-56750000D02*
X120945000Y-56845000D01*
X111000000Y-55500000D02*
X110724980Y-55775020D01*
X110724980Y-55775020D02*
X110724980Y-56367425D01*
X111110000Y-55500000D02*
X111000000Y-55500000D01*
X110750000Y-57305000D02*
X110750000Y-56392445D01*
X110750000Y-56392445D02*
X110724980Y-56367425D01*
X122449999Y-88874979D02*
X122100000Y-88524980D01*
X128500000Y-87500000D02*
X128210000Y-87500000D01*
X126710000Y-89000000D02*
X122575020Y-89000000D01*
X128210000Y-87500000D02*
X126710000Y-89000000D01*
X122100000Y-87350000D02*
X122100000Y-88524980D01*
X122575020Y-89000000D02*
X122449999Y-88874979D01*
X123700000Y-61500000D02*
X125500000Y-63300000D01*
X125500000Y-63300000D02*
X125500000Y-64400000D01*
X123700000Y-58300000D02*
X123700000Y-61500000D01*
X124500000Y-57500000D02*
X123700000Y-58300000D01*
X125905026Y-57500000D02*
X124500000Y-57500000D01*
X127700000Y-56200000D02*
X127205026Y-56200000D01*
X127205026Y-56200000D02*
X125905026Y-57500000D01*
D32*
X126800000Y-60095000D02*
X126800000Y-59775000D01*
X127305000Y-60600000D02*
X126800000Y-60095000D01*
X127467120Y-60600000D02*
X127305000Y-60600000D01*
X128000000Y-61132880D02*
X127467120Y-60600000D01*
X128000000Y-61249999D02*
X128000000Y-61132880D01*
D31*
X131625000Y-85775000D02*
X129900000Y-87500000D01*
X129900000Y-87500000D02*
X128500000Y-87500000D01*
X135575000Y-85775000D02*
X131625000Y-85775000D01*
X125500000Y-65500000D02*
X125500000Y-64400000D01*
X120890000Y-88000000D02*
X121395000Y-88000000D01*
X121395000Y-88000000D02*
X121400000Y-87995000D01*
X121400000Y-87995000D02*
X121400000Y-87480000D01*
X121530000Y-87350000D02*
X122100000Y-87350000D01*
X121400000Y-87480000D02*
X121530000Y-87350000D01*
X126000000Y-60070000D02*
X126000000Y-61865035D01*
D32*
X126000000Y-60070000D02*
X125765000Y-60305000D01*
X126295000Y-59775000D02*
X126000000Y-60070000D01*
D31*
X126000000Y-61865035D02*
X125944998Y-61920037D01*
D32*
X126800000Y-59775000D02*
X126295000Y-59775000D01*
X125765000Y-60305000D02*
X125250000Y-60305000D01*
D31*
X128000000Y-61500000D02*
X128000000Y-61249999D01*
X128000000Y-62655000D02*
X128000000Y-61500000D01*
X128055000Y-63250000D02*
X128055000Y-62710000D01*
X128055000Y-62710000D02*
X128000000Y-62655000D01*
X135775000Y-85125000D02*
X135575000Y-85125000D01*
X136900000Y-85750000D02*
X136900000Y-85150000D01*
X137775000Y-85750000D02*
X136900000Y-85750000D01*
X138325000Y-85200000D02*
X137775000Y-85750000D01*
X138325000Y-74075000D02*
X138325000Y-85200000D01*
X138740000Y-73660000D02*
X138325000Y-74075000D01*
X136875000Y-85125000D02*
X136550000Y-85125000D01*
X136900000Y-85150000D02*
X136875000Y-85125000D01*
D32*
X135775000Y-85125000D02*
X136550000Y-85125000D01*
D31*
X135575000Y-85125000D02*
X135575000Y-85775000D01*
X139700000Y-73660000D02*
X138740000Y-73660000D01*
X125500000Y-54805000D02*
X125500000Y-55600000D01*
X125500000Y-55600000D02*
X125950000Y-56050000D01*
X125500000Y-54805000D02*
X125445000Y-54750000D01*
X130785000Y-87715000D02*
X130400000Y-88100000D01*
X130400000Y-88100000D02*
X130400000Y-88300000D01*
X130800000Y-87715000D02*
X130785000Y-87715000D01*
X132000000Y-87500000D02*
X131015000Y-87500000D01*
X131015000Y-87500000D02*
X130800000Y-87715000D01*
X120700000Y-86700000D02*
X119425000Y-86700000D01*
X126500000Y-65500000D02*
X126500000Y-64400000D01*
X118500000Y-86700000D02*
X119425000Y-86700000D01*
X117900000Y-87300000D02*
X118500000Y-86700000D01*
X117630000Y-87300000D02*
X117900000Y-87300000D01*
X116500000Y-87890000D02*
X117040000Y-87890000D01*
X117040000Y-87890000D02*
X117630000Y-87300000D01*
X130000000Y-51700000D02*
X128800000Y-51700000D01*
X128800000Y-51700000D02*
X128375000Y-52125000D01*
X128500000Y-52250000D02*
X128375000Y-52125000D01*
X128375000Y-52125000D02*
X128250000Y-52000000D01*
X128250000Y-52000000D02*
X127250000Y-52000000D01*
X128500000Y-52610000D02*
X128500000Y-52250000D01*
X127250000Y-52950000D02*
X128160000Y-52950000D01*
X128160000Y-52950000D02*
X128500000Y-52610000D01*
X125445000Y-54750000D02*
X125445000Y-54210000D01*
X125445000Y-54210000D02*
X125655000Y-54000000D01*
X125655000Y-54000000D02*
X126000000Y-54000000D01*
X126250000Y-53040000D02*
X126340000Y-52950000D01*
X126000000Y-54000000D02*
X126250000Y-53750000D01*
X126250000Y-53750000D02*
X126250000Y-53040000D01*
X126340000Y-52950000D02*
X127250000Y-52950000D01*
X132500000Y-81500000D02*
X132500000Y-83500000D01*
X132500000Y-83500000D02*
X131555000Y-84445000D01*
X131555000Y-84445000D02*
X130500000Y-84445000D01*
X129400000Y-86600000D02*
X130500000Y-85500000D01*
X130500000Y-85500000D02*
X130500000Y-84445000D01*
X127400000Y-86600000D02*
X129400000Y-86600000D01*
X127000000Y-87000000D02*
X127400000Y-86600000D01*
X127000000Y-87755000D02*
X127000000Y-87000000D01*
X126250000Y-88000000D02*
X126755000Y-88000000D01*
X126755000Y-88000000D02*
X127000000Y-87755000D01*
X123050000Y-84090000D02*
X123050000Y-85000000D01*
X123125001Y-84014999D02*
X123050000Y-84090000D01*
X124645001Y-84079999D02*
X124580001Y-84014999D01*
X124580001Y-84014999D02*
X123125001Y-84014999D01*
X124645001Y-85855001D02*
X124645001Y-84079999D01*
X126250000Y-87460000D02*
X124645001Y-85855001D01*
X126250000Y-88000000D02*
X126250000Y-87460000D01*
D32*
X123800000Y-56637996D02*
X123800000Y-56300000D01*
X122487998Y-57849998D02*
X122587998Y-57849998D01*
X122149998Y-58187998D02*
X122487998Y-57849998D01*
X122149998Y-58550002D02*
X122149998Y-58187998D01*
X120805000Y-59895000D02*
X122149998Y-58550002D01*
X120805000Y-60250000D02*
X120805000Y-59895000D01*
X122587998Y-57849998D02*
X123800000Y-56637996D01*
D31*
X123800000Y-56300000D02*
X123800000Y-53900000D01*
X123700000Y-53800000D02*
X123700000Y-51050000D01*
X123800000Y-53900000D02*
X123700000Y-53800000D01*
X123700000Y-51050000D02*
X123700000Y-51100000D01*
X123700000Y-51100000D02*
X123700000Y-51050000D01*
D32*
X111290000Y-59390000D02*
X111290000Y-60550000D01*
X111200000Y-59300000D02*
X111290000Y-59390000D01*
D31*
X123550000Y-51050000D02*
X123350000Y-50850000D01*
X123700000Y-51050000D02*
X123550000Y-51050000D01*
X123350000Y-50850000D02*
X123250000Y-50750000D01*
X123250000Y-50750000D02*
X122195000Y-50750000D01*
X124900000Y-51050000D02*
X123700000Y-51050000D01*
X121800000Y-51490000D02*
X121995000Y-51490000D01*
X121995000Y-51490000D02*
X122195000Y-51290000D01*
X121700000Y-52500000D02*
X121700000Y-51590000D01*
X121700000Y-51590000D02*
X121800000Y-51490000D01*
X122460000Y-51400000D02*
X122305000Y-51400000D01*
X122305000Y-51400000D02*
X122195000Y-51290000D01*
X122195000Y-51290000D02*
X122195000Y-50750000D01*
X122650000Y-52500000D02*
X122650000Y-51590000D01*
X122650000Y-51590000D02*
X122460000Y-51400000D01*
X120805000Y-60250000D02*
X120805000Y-60295000D01*
X120805000Y-60295000D02*
X120400000Y-60700000D01*
X120400000Y-60700000D02*
X120400000Y-60900000D01*
X120400000Y-60900000D02*
X120105000Y-61195000D01*
X120105000Y-61195000D02*
X119750000Y-61195000D01*
X119750000Y-61195000D02*
X120005000Y-61195000D01*
X118000000Y-60035000D02*
X118380000Y-60035000D01*
X118380000Y-60035000D02*
X119100000Y-60755000D01*
X119100000Y-60755000D02*
X119100000Y-61085000D01*
X119100000Y-61085000D02*
X119210000Y-61195000D01*
X119210000Y-61195000D02*
X119750000Y-61195000D01*
X113700000Y-54600000D02*
X112800000Y-55500000D01*
X112800000Y-55500000D02*
X112000000Y-55500000D01*
X113700000Y-52300000D02*
X113700000Y-54600000D01*
X114500000Y-51500000D02*
X113700000Y-52300000D01*
X117600000Y-51500000D02*
X114500000Y-51500000D01*
X118700000Y-52600000D02*
X117600000Y-51500000D01*
X118900000Y-52600000D02*
X118700000Y-52600000D01*
X119700000Y-53400000D02*
X118900000Y-52600000D01*
X119700000Y-54535000D02*
X119700000Y-53400000D01*
X119000000Y-54695000D02*
X119540000Y-54695000D01*
X119540000Y-54695000D02*
X119700000Y-54535000D01*
X118695000Y-55750000D02*
X118695000Y-56290000D01*
X118695000Y-56290000D02*
X118600000Y-56385000D01*
X118600000Y-56385000D02*
X118600000Y-56945000D01*
X118380000Y-57165000D02*
X118000000Y-57165000D01*
X118600000Y-56945000D02*
X118380000Y-57165000D01*
X119000000Y-54695000D02*
X119000000Y-55000000D01*
X119000000Y-55000000D02*
X118695000Y-55305000D01*
X118695000Y-55305000D02*
X118695000Y-55750000D01*
X111640002Y-56100000D02*
X111940000Y-56100000D01*
X111940000Y-56100000D02*
X112000000Y-56040000D01*
X112000000Y-56040000D02*
X112000000Y-55500000D01*
X111400000Y-56769998D02*
X111400000Y-56340002D01*
X111400000Y-56340002D02*
X111640002Y-56100000D01*
X111384999Y-58174999D02*
X111384999Y-56784999D01*
X111400000Y-58190000D02*
X110755000Y-58190000D01*
X112000000Y-58190000D02*
X111400000Y-58190000D01*
X111384999Y-56784999D02*
X111400000Y-56769998D01*
X111400000Y-58190000D02*
X111384999Y-58174999D01*
X110755000Y-58190000D02*
X110750000Y-58195000D01*
X113190000Y-60550000D02*
X112550000Y-60550000D01*
X112550000Y-60550000D02*
X112250000Y-60250000D01*
X112250000Y-60250000D02*
X112250000Y-59250000D01*
X112250000Y-59250000D02*
X112000000Y-59000000D01*
X112000000Y-59000000D02*
X112000000Y-58190000D01*
X118695000Y-55710000D02*
X118705000Y-55700000D01*
D32*
X117500000Y-60155000D02*
X117545000Y-60200000D01*
X114249999Y-62050001D02*
X113800000Y-62500000D01*
X113800000Y-62500000D02*
X113190000Y-62500000D01*
X114300000Y-60600000D02*
X114249999Y-60650001D01*
X114249999Y-60650001D02*
X114249999Y-62050001D01*
D31*
X114300000Y-60600000D02*
X114300000Y-60634999D01*
X114800000Y-60100000D02*
X114300000Y-60600000D01*
X114936411Y-60100000D02*
X114800000Y-60100000D01*
X113190000Y-62500000D02*
X113400000Y-62500000D01*
X115205026Y-60100000D02*
X115700000Y-60100000D01*
X114936411Y-60100000D02*
X115205026Y-60100000D01*
X113190000Y-62500000D02*
X113190000Y-62180000D01*
D32*
X118445000Y-61785000D02*
X118445000Y-61400000D01*
X119000000Y-62305000D02*
X118965000Y-62305000D01*
X118965000Y-62305000D02*
X118445000Y-61785000D01*
X118110001Y-60800000D02*
X117615000Y-60800000D01*
X117615000Y-60800000D02*
X117500000Y-60685000D01*
X117500000Y-60685000D02*
X117524999Y-60709999D01*
X117500000Y-60035000D02*
X117500000Y-60685000D01*
X118110001Y-60800000D02*
X118110001Y-60785001D01*
X118400000Y-60800000D02*
X118110001Y-60800000D01*
X118445000Y-60845000D02*
X118400000Y-60800000D01*
X118445000Y-61250000D02*
X118445000Y-60845000D01*
D31*
X120805000Y-61595000D02*
X120705000Y-61595000D01*
X120705000Y-61595000D02*
X119900000Y-62400000D01*
X120805000Y-61500000D02*
X120805000Y-61595000D01*
X120250001Y-62749999D02*
X120300000Y-62750000D01*
X120300000Y-62750000D02*
X120805000Y-62750000D01*
X119900000Y-62400000D02*
X120250001Y-62749999D01*
X119600000Y-62400000D02*
X119600000Y-62365000D01*
X119600000Y-62365000D02*
X119540000Y-62305000D01*
X119540000Y-62305000D02*
X119000000Y-62305000D01*
X119900000Y-62400000D02*
X119600000Y-62400000D01*
X115695000Y-61250000D02*
X115695000Y-60105000D01*
X115695000Y-60105000D02*
X115700000Y-60100000D01*
X130250000Y-62500000D02*
X129500000Y-63250000D01*
X129500000Y-63250000D02*
X128945000Y-63250000D01*
X130250000Y-61225000D02*
X130250000Y-62500000D01*
X131500000Y-61050000D02*
X130425000Y-61050000D01*
X130425000Y-61050000D02*
X130250000Y-61225000D01*
X129750000Y-57500000D02*
X129500000Y-57250000D01*
X129500000Y-57250000D02*
X128945000Y-57250000D01*
X129750000Y-58250000D02*
X129750000Y-57500000D01*
X130100000Y-59100000D02*
X129950000Y-58950000D01*
X129950000Y-58950000D02*
X129950000Y-58450000D01*
X131500000Y-59100000D02*
X130100000Y-59100000D01*
X129950000Y-58450000D02*
X129750000Y-58250000D01*
X131500000Y-58450000D02*
X129950000Y-58450000D01*
X112000000Y-56795000D02*
X112065292Y-56729708D01*
X112000000Y-57300000D02*
X112000000Y-56795000D01*
X112065292Y-56729708D02*
X112243144Y-56729708D01*
D32*
X114659999Y-62800000D02*
X114500000Y-62800000D01*
X114500000Y-62800000D02*
X114300000Y-63000000D01*
X114659999Y-62340001D02*
X114659999Y-62800000D01*
X114659999Y-62800000D02*
X114659999Y-62840001D01*
X114805000Y-61695000D02*
X114659999Y-61840001D01*
X114659999Y-61840001D02*
X114659999Y-62340001D01*
D31*
X114805000Y-61250000D02*
X114805000Y-61695000D01*
X122750000Y-58550000D02*
X122800000Y-58500000D01*
X122750000Y-59305000D02*
X122750000Y-58550000D01*
X126200000Y-51100000D02*
X127200000Y-51100000D01*
X127200000Y-51100000D02*
X127250000Y-51050000D01*
X116500000Y-83555000D02*
X116500000Y-82600000D01*
X116500000Y-81500000D02*
X116500000Y-82600000D01*
X124000000Y-87350000D02*
X124000000Y-86440000D01*
X120700000Y-85165002D02*
X120700000Y-84300000D01*
X124000000Y-86440000D02*
X123800000Y-86240000D01*
X123800000Y-86240000D02*
X121774998Y-86240000D01*
X121774998Y-86240000D02*
X120700000Y-85165002D01*
X120700000Y-84300000D02*
X119955000Y-83555000D01*
X119955000Y-83555000D02*
X116500000Y-83555000D01*
X124000000Y-87350000D02*
X124000000Y-86700000D01*
X129700000Y-83600000D02*
X130455000Y-83600000D01*
X130455000Y-83600000D02*
X130500000Y-83555000D01*
X130500000Y-83555000D02*
X130500000Y-81500000D01*
X134625000Y-60712500D02*
X134625000Y-62225000D01*
X134625000Y-62225000D02*
X134375000Y-62475000D01*
X134625000Y-58787500D02*
X134625000Y-60712500D01*
X134375000Y-57025000D02*
X134375000Y-58537500D01*
X134375000Y-58537500D02*
X134625000Y-58787500D01*
X135950000Y-51625000D02*
X135525000Y-51625000D01*
X135525000Y-51625000D02*
X135600000Y-51700000D01*
X135600000Y-51700000D02*
X135600000Y-52250000D01*
X135600000Y-52250000D02*
X134550000Y-52250000D01*
X134550000Y-52250000D02*
X133000000Y-53800000D01*
X129500000Y-64200000D02*
X129500000Y-65500000D01*
X133000000Y-53800000D02*
X133000000Y-62000000D01*
X133000000Y-62000000D02*
X131600000Y-63400000D01*
X131600000Y-63400000D02*
X130300000Y-63400000D01*
X130300000Y-63400000D02*
X129500000Y-64200000D01*
X136975000Y-52300000D02*
X136975000Y-51625000D01*
D32*
X137750000Y-52350000D02*
X137700000Y-52300000D01*
X139700000Y-55880000D02*
X139700000Y-54950000D01*
X138500000Y-54250000D02*
X137750000Y-53500000D01*
X139000000Y-54250000D02*
X138500000Y-54250000D01*
X139700000Y-54950000D02*
X139000000Y-54250000D01*
X137750000Y-53500000D02*
X137750000Y-52350000D01*
D31*
X136975000Y-52300000D02*
X137700000Y-52300000D01*
X136975000Y-51625000D02*
X136525000Y-51625000D01*
D32*
X135950000Y-51625000D02*
X136525000Y-51625000D01*
D31*
X135429754Y-52875000D02*
X134625065Y-53679689D01*
X134625065Y-53679689D02*
X134275066Y-54029688D01*
X136000000Y-52875000D02*
X135429754Y-52875000D01*
X130500000Y-64500000D02*
X130500000Y-65500000D01*
D32*
X135975000Y-52875000D02*
X136000000Y-52875000D01*
X136000000Y-52875000D02*
X136500000Y-52875000D01*
D31*
X136900000Y-52875000D02*
X136500000Y-52875000D01*
X136925000Y-52850000D02*
X136900000Y-52875000D01*
X136925000Y-53550000D02*
X136925000Y-52850000D01*
X136900000Y-53575000D02*
X136925000Y-53550000D01*
X137175000Y-53575000D02*
X136900000Y-53575000D01*
X138050000Y-54450000D02*
X137175000Y-53575000D01*
X138075000Y-54450000D02*
X138050000Y-54450000D01*
X138325000Y-54700000D02*
X138075000Y-54450000D01*
X138325000Y-58950000D02*
X138325000Y-54700000D01*
X138325000Y-58950000D02*
X139700000Y-60325000D01*
X139700000Y-60960000D02*
X139700000Y-60325000D01*
X128667009Y-65065429D02*
X128667009Y-64570455D01*
X128500000Y-65500000D02*
X128667009Y-65332991D01*
X128667009Y-65332991D02*
X128667009Y-65065429D01*
X135825000Y-54154833D02*
X134950123Y-55029710D01*
X135825000Y-54125000D02*
X135825000Y-54154833D01*
X134950123Y-55029710D02*
X134600124Y-55379709D01*
X135200000Y-78800000D02*
X134200000Y-78800000D01*
X139700000Y-66040000D02*
X139700000Y-65750000D01*
X136875000Y-54625000D02*
X136875000Y-54175000D01*
X137874998Y-54950000D02*
X137850000Y-54950000D01*
X137525000Y-54625000D02*
X136875000Y-54625000D01*
X137850000Y-54950000D02*
X137525000Y-54625000D01*
X136825000Y-54125000D02*
X136500000Y-54125000D01*
X136875000Y-54175000D02*
X136825000Y-54125000D01*
D32*
X135825000Y-54125000D02*
X136500000Y-54125000D01*
D31*
X139700000Y-65750000D02*
X137874998Y-63924998D01*
X137874998Y-63924998D02*
X137874998Y-54950000D01*
X137874998Y-54950000D02*
X137874998Y-54949998D01*
X134577310Y-87422690D02*
X134227311Y-87772689D01*
X135625000Y-86375000D02*
X134577310Y-87422690D01*
X135800000Y-86375000D02*
X135625000Y-86375000D01*
X131500000Y-82500000D02*
X131500000Y-81500000D01*
X140465000Y-78740000D02*
X141100000Y-79375000D01*
X141100000Y-79375000D02*
X141100000Y-83300000D01*
X141100000Y-83300000D02*
X137750000Y-86650000D01*
X137750000Y-86650000D02*
X137750000Y-86925000D01*
X137750000Y-86925000D02*
X137700000Y-86975000D01*
X137700000Y-86975000D02*
X136950000Y-86975000D01*
X136950000Y-86975000D02*
X136925000Y-86950000D01*
X136925000Y-86950000D02*
X136925000Y-86375000D01*
X136925000Y-86375000D02*
X136550000Y-86375000D01*
D32*
X135800000Y-86375000D02*
X136550000Y-86375000D01*
D31*
X139700000Y-78740000D02*
X140465000Y-78740000D01*
X134200000Y-77800000D02*
X135400000Y-77800000D01*
X135500000Y-76800000D02*
X134200000Y-76800000D01*
X135600000Y-76900000D02*
X135500000Y-76800000D01*
X135600000Y-77600000D02*
X135600000Y-76900000D01*
X135400000Y-77800000D02*
X135600000Y-77600000D01*
D33*
X126250000Y-84445000D02*
X126250000Y-85286206D01*
X126250000Y-85286206D02*
X126656885Y-85693091D01*
X128000000Y-60549502D02*
X128000000Y-58500021D01*
X128000000Y-58500021D02*
X128000021Y-58500000D01*
X128527501Y-60702501D02*
X128152999Y-60702501D01*
X128700000Y-60875000D02*
X128527501Y-60702501D01*
X128152999Y-60702501D02*
X128000000Y-60549502D01*
X128700000Y-61725000D02*
X128700000Y-60875000D01*
D31*
X129600000Y-61400000D02*
X129275000Y-61725000D01*
X129275000Y-61725000D02*
X128700000Y-61725000D01*
X129600000Y-60600000D02*
X129600000Y-61400000D01*
X129800000Y-60400000D02*
X129600000Y-60600000D01*
X131500000Y-60400000D02*
X129800000Y-60400000D01*
D33*
X126250000Y-84480000D02*
X126250000Y-84445000D01*
X127750000Y-84445000D02*
X127750000Y-85499976D01*
X127750000Y-85499976D02*
X127556885Y-85693091D01*
X128700000Y-59775000D02*
X128700000Y-58700000D01*
X128700000Y-58700000D02*
X128900000Y-58500000D01*
D31*
X131500000Y-59750900D02*
X128724100Y-59750900D01*
X128724100Y-59750900D02*
X128700000Y-59775000D01*
D33*
X126250000Y-83555000D02*
X126787500Y-83555000D01*
X126787500Y-83555000D02*
X126787500Y-82487500D01*
X126787500Y-82487500D02*
X126500000Y-82200000D01*
X126500000Y-82200000D02*
X126500000Y-81500000D01*
X127212500Y-83555000D02*
X127212500Y-82487500D01*
X127500000Y-82200000D02*
X127500000Y-81500000D01*
X127750000Y-83555000D02*
X127212500Y-83555000D01*
X127212500Y-82487500D02*
X127500000Y-82200000D01*
X117212500Y-64203450D02*
X117337500Y-64078450D01*
X117337500Y-64078450D02*
X117337500Y-63642500D01*
X117337500Y-63642500D02*
X117750000Y-63230000D01*
X117750000Y-63230000D02*
X117750000Y-63195000D01*
X117500000Y-65500000D02*
X117500000Y-64800000D01*
X117212500Y-64512500D02*
X117212500Y-64203450D01*
X117500000Y-64800000D02*
X117212500Y-64512500D01*
X116787500Y-64027410D02*
X116912500Y-63902410D01*
X116912500Y-63902410D02*
X116912500Y-63642500D01*
X116912500Y-63642500D02*
X116500000Y-63230000D01*
X116500000Y-63230000D02*
X116500000Y-63195000D01*
X116500000Y-65500000D02*
X116500000Y-64800000D01*
X116500000Y-64800000D02*
X116787500Y-64512500D01*
X116787500Y-64512500D02*
X116787500Y-64027410D01*
D32*
X117750000Y-53805000D02*
X117750000Y-53350000D01*
X117750000Y-53350000D02*
X117650000Y-53250000D01*
X117650000Y-53250000D02*
X117459028Y-53250000D01*
X117200000Y-52990972D02*
X117200000Y-52495998D01*
X117459028Y-53250000D02*
X117200000Y-52990972D01*
X114500000Y-65500000D02*
X114500000Y-64500000D01*
X114399835Y-65399835D02*
X114399835Y-64977090D01*
X114500000Y-65500000D02*
X114399835Y-65399835D01*
X116500000Y-53805000D02*
X116500000Y-52695998D01*
X116500000Y-52695998D02*
X116300000Y-52495998D01*
X113500000Y-65500000D02*
X113500000Y-64500000D01*
X114900000Y-59300000D02*
X114900000Y-57700000D01*
X114800000Y-57600000D02*
X114800000Y-56745000D01*
X114900000Y-57700000D02*
X114800000Y-57600000D01*
X114805001Y-56750001D02*
X115550001Y-56750001D01*
D31*
X115550001Y-56750001D02*
X115900000Y-57100000D01*
D32*
X114805001Y-56750001D02*
X114800000Y-56745000D01*
D31*
X113820001Y-61435001D02*
X113755002Y-61500000D01*
X114945000Y-59255000D02*
X114900000Y-59300000D01*
X114900000Y-59300000D02*
X113820001Y-60379999D01*
X113820001Y-60379999D02*
X113820001Y-61435001D01*
X113755002Y-61500000D02*
X111625000Y-61500000D01*
X111625000Y-61500000D02*
X111500000Y-61625000D01*
X111500000Y-61625000D02*
X111500000Y-62500000D01*
X115900000Y-57100000D02*
X116435000Y-57100000D01*
X116435000Y-57100000D02*
X116500000Y-57165000D01*
X119125002Y-58400000D02*
X119025002Y-58500000D01*
X119300000Y-58400000D02*
X119125002Y-58400000D01*
X119300000Y-58400000D02*
X119300000Y-59300000D01*
X119300000Y-57000000D02*
X119300000Y-58400000D01*
X119300000Y-59300000D02*
X119750000Y-59750000D01*
X119750000Y-59750000D02*
X119750000Y-60305000D01*
X120055000Y-56750000D02*
X119550000Y-56750000D01*
X119550000Y-56750000D02*
X119300000Y-57000000D01*
X120055000Y-56750000D02*
X120055000Y-56045000D01*
X120055000Y-56045000D02*
X120100000Y-56000000D01*
X120100000Y-56000000D02*
X120510000Y-56000000D01*
X120510000Y-56000000D02*
X120750000Y-55760000D01*
X120750000Y-55760000D02*
X120750000Y-54850000D01*
X120055000Y-56750000D02*
X120050000Y-56750000D01*
X119000000Y-53805000D02*
X118460000Y-53805000D01*
X117941410Y-54695000D02*
X117936400Y-54700010D01*
X118460000Y-53805000D02*
X118365001Y-53899999D01*
X118365001Y-53899999D02*
X118365001Y-54320001D01*
X118365001Y-54320001D02*
X118300000Y-54385002D01*
X118300000Y-54385002D02*
X118300000Y-54600000D01*
X118300000Y-54600000D02*
X118205000Y-54695000D01*
X118205000Y-54695000D02*
X117941410Y-54695000D01*
X117936400Y-54700010D02*
X117755010Y-54700010D01*
X117755010Y-54700010D02*
X117805000Y-54750000D01*
X117805000Y-54750000D02*
X117805000Y-55750000D01*
X117700000Y-56400000D02*
X117805000Y-56295000D01*
X117805000Y-56295000D02*
X117805000Y-55750000D01*
X117565000Y-56400000D02*
X117700000Y-56400000D01*
X117500000Y-57165000D02*
X117500000Y-56465000D01*
X117500000Y-56465000D02*
X117565000Y-56400000D01*
X119000000Y-63195000D02*
X118495000Y-63195000D01*
X118205000Y-62305000D02*
X117750000Y-62305000D01*
X118400000Y-62500000D02*
X118205000Y-62305000D01*
X118400000Y-63100000D02*
X118400000Y-62500000D01*
X118495000Y-63195000D02*
X118400000Y-63100000D01*
D32*
X117000000Y-61200000D02*
X117000000Y-61300000D01*
X117000000Y-61300000D02*
X117100000Y-61400000D01*
X117555000Y-61400000D02*
X117100000Y-61400000D01*
X117100000Y-61400000D02*
X117050000Y-61350000D01*
D31*
X117000000Y-61200000D02*
X117000000Y-60035000D01*
X117750000Y-61950000D02*
X117715000Y-61950000D01*
X117715000Y-61950000D02*
X117555000Y-61790000D01*
X117555000Y-61790000D02*
X117555000Y-61250000D01*
X117750000Y-62305000D02*
X117750000Y-61950000D01*
X121805000Y-56005000D02*
X121700000Y-55900000D01*
X121700000Y-55900000D02*
X121700000Y-54850000D01*
X121805000Y-56750000D02*
X121805000Y-56005000D01*
X122600000Y-56115000D02*
X122650000Y-56065000D01*
X122650000Y-56065000D02*
X122650000Y-54850000D01*
X122695000Y-56750000D02*
X122695000Y-56210000D01*
X122695000Y-56210000D02*
X122600000Y-56115000D01*
X117800000Y-86700000D02*
X118300000Y-86200000D01*
X118300000Y-86200000D02*
X118300000Y-84800000D01*
X117340000Y-86700000D02*
X117800000Y-86700000D01*
X116500000Y-87000000D02*
X117040000Y-87000000D01*
X117040000Y-87000000D02*
X117340000Y-86700000D01*
X119425000Y-84800000D02*
X118300000Y-84800000D01*
X118300000Y-84800000D02*
X118000000Y-84500000D01*
X116600000Y-85100000D02*
X116500000Y-85000000D01*
X116500000Y-85000000D02*
X116500000Y-84445000D01*
X116995000Y-85100000D02*
X116600000Y-85100000D01*
X117075000Y-85750000D02*
X117075000Y-85180000D01*
X117075000Y-85180000D02*
X116995000Y-85100000D01*
D32*
X117000000Y-57165000D02*
X117000000Y-55900000D01*
X116500000Y-55400000D02*
X116500000Y-54695000D01*
X117000000Y-55900000D02*
X116500000Y-55400000D01*
D31*
X116500000Y-54695000D02*
X115250000Y-54695000D01*
X116500000Y-62305000D02*
X116500000Y-60035000D01*
X115250000Y-62305000D02*
X116500000Y-62305000D01*
M02*
