M48
;DRILL file {KiCad 4.0.2-stable} date 05/06/2016 01:14:30
;FORMAT={-:-/ absolute / metric / decimal}
FMAT,2
METRIC,TZ
T1C0.300
T2C0.650
T3C0.700
T4C1.016
%
G90
G05
M71
T1
X110.725Y-56.367
X111.2Y-59.3
X112.243Y-56.73
X113.5Y-64.5
X114.3Y-63.
X114.5Y-64.5
X115.2Y-52.6
X115.5Y-64.5
X115.7Y-60.1
X115.9Y-55.9
X115.9Y-57.1
X116.3Y-52.496
X116.5Y-82.6
X117.2Y-52.496
X117.5Y-82.6
X118.Y-84.5
X118.5Y-82.5
X119.025Y-58.5
X119.1Y-88.1
X119.5Y-82.6
X119.592Y-52.338
X119.9Y-62.4
X120.5Y-64.4
X120.7Y-86.7
X121.6Y-57.6
X122.1Y-88.525
X122.5Y-61.4
X122.8Y-58.5
X123.35Y-50.85
X124.5Y-64.3
X124.9Y-56.1
X125.Y-87.2
X125.5Y-64.4
X125.945Y-61.92
X125.95Y-56.05
X126.04Y-52.1
X126.2Y-51.1
X126.5Y-64.4
X126.657Y-85.693
X126.748Y-62.998
X127.557Y-85.693
X127.7Y-56.2
X128.Y-58.5
X128.667Y-64.57
X128.9Y-58.5
X129.7Y-83.6
X130.4Y-88.3
X130.5Y-64.5
X131.5Y-82.5
X132.5Y-64.4
X134.227Y-87.773
X134.275Y-54.03
X134.5Y-84.9
X134.6Y-55.38
X135.2Y-78.8
X135.2Y-79.8
T4
X130.Y-51.7
X132.54Y-51.7
X139.7Y-55.88
X139.7Y-58.42
X139.7Y-60.96
X139.7Y-63.5
X139.7Y-66.04
X139.7Y-68.58
X139.7Y-68.58
X139.7Y-71.12
X139.7Y-73.66
X139.7Y-76.2
X139.7Y-78.74
X139.7Y-81.28
T2
X131.575Y-57.325G85X131.175Y-57.325
G05
X131.575Y-62.175G85X131.175Y-62.175
G05
T3
X134.625Y-57.025G85X134.125Y-57.025
G05
X134.625Y-62.475G85X134.125Y-62.475
G05
T0
M30
