G04 #@! TF.FileFunction,Soldermask,Top*
%FSLAX46Y46*%
G04 Gerber Fmt 4.6, Leading zero omitted, Abs format (unit mm)*
G04 Created by KiCad (PCBNEW 4.0.2-stable) date 05/06/2016 01:14:18*
%MOMM*%
G01*
G04 APERTURE LIST*
%ADD10C,0.100000*%
%ADD11R,0.260000X0.900000*%
%ADD12R,2.450000X1.575000*%
%ADD13C,1.700000*%
%ADD14O,2.000000X0.600000*%
%ADD15O,0.600000X2.000000*%
%ADD16C,0.600000*%
%ADD17R,1.650000X0.400000*%
%ADD18O,1.500000X1.100000*%
%ADD19O,1.700000X1.200000*%
%ADD20R,2.500000X1.425000*%
%ADD21R,2.032000X1.727200*%
%ADD22O,2.032000X1.727200*%
%ADD23R,0.510000X0.580000*%
%ADD24R,0.580000X0.510000*%
%ADD25R,1.320000X0.640000*%
%ADD26R,1.030000X1.250000*%
%ADD27R,0.610000X1.250000*%
%ADD28R,0.640000X1.320000*%
%ADD29R,2.032000X2.032000*%
%ADD30O,2.032000X2.032000*%
%ADD31R,1.470000X0.890000*%
G04 APERTURE END LIST*
D10*
X137000000Y-50500000D02*
G75*
G03X137500000Y-50000000I0J500000D01*
G01*
X136500000Y-50000000D02*
G75*
G03X137000000Y-50500000I500000J0D01*
G01*
X136500000Y-57750000D02*
X136500000Y-55500000D01*
X137500000Y-55500000D02*
X137500000Y-57750000D01*
X137500000Y-55500000D02*
G75*
G03X137000000Y-55000000I-500000J0D01*
G01*
X137000000Y-55000000D02*
G75*
G03X136500000Y-55500000I0J-500000D01*
G01*
X137500000Y-65750000D02*
X137500000Y-70500000D01*
X136500000Y-58500000D02*
X136500000Y-63250000D01*
X136500000Y-75500000D02*
X136500000Y-70750000D01*
X137500000Y-70750000D02*
X137500000Y-75500000D01*
X136500000Y-87750000D02*
X136500000Y-90000000D01*
X137500000Y-90000000D02*
X137500000Y-87750000D01*
X137500000Y-57750000D02*
X137500000Y-65750000D01*
X137500000Y-70500000D02*
X137500000Y-70750000D01*
X136500000Y-63500000D02*
X136500000Y-70750000D01*
X136500000Y-63500000D02*
X136500000Y-63250000D01*
X141600000Y-87500000D02*
G75*
G03X141600000Y-87500000I-1600000J0D01*
G01*
X141600000Y-52500000D02*
G75*
G03X141600000Y-52500000I-1600000J0D01*
G01*
X136500000Y-58500000D02*
X136500000Y-57750000D01*
X142500000Y-90000000D02*
X140000000Y-90000000D01*
X142500000Y-50000000D02*
X139000000Y-50000000D01*
X142500000Y-90000000D02*
X142500000Y-50000000D01*
X139000000Y-50000000D02*
X137500000Y-50000000D01*
X136500000Y-50000000D02*
X110000000Y-50000000D01*
X136500000Y-82500000D02*
X136500000Y-75500000D01*
X137500000Y-75500000D02*
X137500000Y-82500000D01*
X137000000Y-83000000D02*
G75*
G03X137500000Y-82500000I0J500000D01*
G01*
X136500000Y-82500000D02*
G75*
G03X137000000Y-83000000I500000J0D01*
G01*
X137500000Y-87750000D02*
G75*
G03X137000000Y-87250000I-500000J0D01*
G01*
X137000000Y-87250000D02*
G75*
G03X136500000Y-87750000I0J-500000D01*
G01*
X137500000Y-90000000D02*
X139000000Y-90000000D01*
X136500000Y-90000000D02*
X110000000Y-90000000D01*
X140000000Y-90000000D02*
X139000000Y-90000000D01*
X110000000Y-50000000D02*
X110000000Y-90000000D01*
D11*
X118000000Y-57165000D03*
X117500000Y-57165000D03*
X117000000Y-57165000D03*
X116500000Y-57165000D03*
X116500000Y-60035000D03*
X117000000Y-60035000D03*
X117500000Y-60035000D03*
X118000000Y-60035000D03*
D12*
X117250000Y-58600000D03*
D13*
X113500000Y-58500000D03*
X120500000Y-58500000D03*
D14*
X134200000Y-73800000D03*
D15*
X116500000Y-81500000D03*
X117500000Y-81500000D03*
X118500000Y-81500000D03*
X119500000Y-81500000D03*
X120500000Y-81500000D03*
X121500000Y-81500000D03*
X122500000Y-81500000D03*
X123500000Y-81500000D03*
X124500000Y-81500000D03*
X125500000Y-81500000D03*
X126500000Y-81500000D03*
X127500000Y-81500000D03*
X128500000Y-81500000D03*
X129500000Y-81500000D03*
X130500000Y-81500000D03*
X131500000Y-81500000D03*
X132500000Y-81500000D03*
D14*
X134200000Y-79800000D03*
X134200000Y-78800000D03*
X134200000Y-77800000D03*
X134200000Y-76800000D03*
X134200000Y-75800000D03*
X134200000Y-74800000D03*
X134200000Y-72800000D03*
X134200000Y-71800000D03*
X134200000Y-70800000D03*
X134200000Y-69800000D03*
X134200000Y-68800000D03*
X134200000Y-67800000D03*
D15*
X132500000Y-65500000D03*
X131500000Y-65500000D03*
X130500000Y-65500000D03*
X129500000Y-65500000D03*
X128500000Y-65500000D03*
X127500000Y-65500000D03*
X126500000Y-65500000D03*
X125500000Y-65500000D03*
X124500000Y-65500000D03*
X123500000Y-65500000D03*
X122500000Y-65500000D03*
X121500000Y-65500000D03*
X120500000Y-65500000D03*
X119500000Y-65500000D03*
X118500000Y-65500000D03*
X117500000Y-65500000D03*
X116500000Y-65500000D03*
X115500000Y-65500000D03*
X114500000Y-65500000D03*
X113500000Y-65500000D03*
D16*
X136250000Y-53500000D03*
X136250000Y-54750000D03*
X136250000Y-52250000D03*
X136250000Y-51000000D03*
X136250000Y-85750000D03*
X136250000Y-87000000D03*
X136250000Y-84500000D03*
X136250000Y-83250000D03*
D17*
X131500000Y-61050000D03*
X131500000Y-60400000D03*
X131500000Y-59750900D03*
X131500000Y-59100000D03*
X131500000Y-58450000D03*
D18*
X131375000Y-62175000D03*
X131375000Y-57325000D03*
D19*
X134375000Y-62475000D03*
X134375000Y-57025000D03*
D20*
X134625000Y-60712500D03*
X134625000Y-58787500D03*
D21*
X139700000Y-68580000D03*
D22*
X139700000Y-71120000D03*
X139700000Y-73660000D03*
X139700000Y-76200000D03*
X139700000Y-78740000D03*
X139700000Y-81280000D03*
D23*
X122195000Y-50750000D03*
X121305000Y-50750000D03*
D24*
X127750000Y-83555000D03*
X127750000Y-84445000D03*
X116500000Y-83555000D03*
X116500000Y-84445000D03*
X116500000Y-87890000D03*
X116500000Y-87000000D03*
X115250000Y-54695000D03*
X115250000Y-53805000D03*
X130500000Y-83555000D03*
X130500000Y-84445000D03*
X126250000Y-83555000D03*
X126250000Y-84445000D03*
X115250000Y-62305000D03*
X115250000Y-63195000D03*
D23*
X120805000Y-62750000D03*
X121695000Y-62750000D03*
X112000000Y-55500000D03*
X111110000Y-55500000D03*
D24*
X116500000Y-54695000D03*
X116500000Y-53805000D03*
X116500000Y-62305000D03*
X116500000Y-63195000D03*
X117750000Y-62305000D03*
X117750000Y-63195000D03*
X119000000Y-54695000D03*
X119000000Y-53805000D03*
X119000000Y-62305000D03*
X119000000Y-63195000D03*
X117750000Y-54695000D03*
X117750000Y-53805000D03*
D25*
X124900000Y-51050000D03*
X124900000Y-52000000D03*
X124900000Y-52950000D03*
X127250000Y-52950000D03*
X127250000Y-52000000D03*
X127250000Y-51050000D03*
D26*
X111500000Y-62500000D03*
D27*
X113190000Y-62500000D03*
X113190000Y-60550000D03*
X111290000Y-60550000D03*
D28*
X122650000Y-52500000D03*
X121700000Y-52500000D03*
X120750000Y-52500000D03*
X120750000Y-54850000D03*
X121700000Y-54850000D03*
X122650000Y-54850000D03*
D26*
X127010000Y-61725000D03*
D27*
X128700000Y-61725000D03*
X128700000Y-59775000D03*
X126800000Y-59775000D03*
D25*
X119425000Y-86700000D03*
X119425000Y-84800000D03*
X117075000Y-85750000D03*
D23*
X121805000Y-56750000D03*
X122695000Y-56750000D03*
X118445000Y-61400000D03*
X117555000Y-61400000D03*
X118695000Y-55750000D03*
X117805000Y-55750000D03*
D24*
X119750000Y-61195000D03*
X119750000Y-60305000D03*
X114800000Y-56745000D03*
X114800000Y-55855000D03*
D29*
X130000000Y-51700000D03*
D30*
X132540000Y-51700000D03*
D28*
X122100000Y-87350000D03*
X123050000Y-87350000D03*
X124000000Y-87350000D03*
X124000000Y-85000000D03*
X123050000Y-85000000D03*
X122100000Y-85000000D03*
D21*
X139700000Y-55880000D03*
D22*
X139700000Y-58420000D03*
X139700000Y-60960000D03*
X139700000Y-63500000D03*
X139700000Y-66040000D03*
X139700000Y-68580000D03*
D24*
X122750000Y-60195000D03*
X122750000Y-59305000D03*
D23*
X128945000Y-57250000D03*
X128055000Y-57250000D03*
X128945000Y-63250000D03*
X128055000Y-63250000D03*
D31*
X128500000Y-87500000D03*
X132000000Y-87500000D03*
D23*
X120805000Y-61500000D03*
X121695000Y-61500000D03*
D24*
X110750000Y-58195000D03*
X110750000Y-57305000D03*
X125250000Y-60305000D03*
X125250000Y-61195000D03*
D23*
X126250000Y-88000000D03*
X125360000Y-88000000D03*
X125445000Y-54750000D03*
X124555000Y-54750000D03*
X120890000Y-88000000D03*
X120000000Y-88000000D03*
X120055000Y-56750000D03*
X120945000Y-56750000D03*
X120805000Y-60250000D03*
X121695000Y-60250000D03*
X115695000Y-61250000D03*
X114805000Y-61250000D03*
D24*
X112000000Y-58190000D03*
X112000000Y-57300000D03*
M02*
